HIERARCHY
ROOT Hips
{
	OFFSET	0.000000	0.000000	0.000000
	CHANNELS 6 Xposition Yposition Zposition Zrotation Xrotation Yrotation
	JOINT LeftHip
	{
		OFFSET	4.740440	-3.195970	-0.322709
		CHANNELS 3 Zrotation Xrotation Yrotation
		JOINT LeftKnee
		{
			OFFSET	-1.605680	-15.592300	1.005510
			CHANNELS 3 Zrotation Xrotation Yrotation
			JOINT LeftAnkle
			{
				OFFSET	-0.632401	-16.421000	-1.413730
				CHANNELS 3 Zrotation Xrotation Yrotation
				End Site
				{
					OFFSET	0.008423	-2.933000	-1.684880
				}
			}
		}
	}
	JOINT RightHip
	{
		OFFSET	-4.740440	-3.195970	-0.322709
		CHANNELS 3 Zrotation Xrotation Yrotation
		JOINT RightKnee
		{
			OFFSET	1.605680	-15.592300	1.005510
			CHANNELS 3 Zrotation Xrotation Yrotation
			JOINT RightAnkle
			{
				OFFSET	0.632401	-16.421000	-1.413730
				CHANNELS 3 Zrotation Xrotation Yrotation
				End Site
				{
					OFFSET	-0.008423	-2.933000	-1.684880
				}
			}
		}
	}
	JOINT Chest
	{
		OFFSET	0.000000	3.468200	0.078401
		CHANNELS 3 Zrotation Xrotation Yrotation
		JOINT LeftCollar
		{
			OFFSET	3.857650	15.070700	-0.011583
			CHANNELS 3 Zrotation Xrotation Yrotation
			JOINT LeftShoulder
			{
				OFFSET	3.979720	-1.940530	-0.165223
				CHANNELS 3 Zrotation Xrotation Yrotation
				JOINT LeftElbow
				{
					OFFSET	0.615844	-10.986600	-0.673886
					CHANNELS 3 Zrotation Xrotation Yrotation
					JOINT LeftWrist
					{
						OFFSET	0.826843	-10.854500	1.034220
						CHANNELS 3 Zrotation Xrotation Yrotation
						End Site
						{
							OFFSET	-1.679080	-8.456540	0.936217
						}
					}
				}
			}
		}
		JOINT RightCollar
		{
			OFFSET	-3.857650	15.070700	-0.011583
			CHANNELS 3 Zrotation Xrotation Yrotation
			JOINT RightShoulder
			{
				OFFSET	-3.979720	-1.940530	-0.165223
				CHANNELS 3 Zrotation Xrotation Yrotation
				JOINT RightElbow
				{
					OFFSET	-0.615845	-10.986600	-0.673886
					CHANNELS 3 Zrotation Xrotation Yrotation
					JOINT RightWrist
					{
						OFFSET	-0.826843	-10.854500	1.034220
						CHANNELS 3 Zrotation Xrotation Yrotation
						End Site
						{
							OFFSET	1.679080	-8.456540	0.936217
						}
					}
				}
			}
		}
		JOINT Neck
		{
			OFFSET	0.000000	15.101400	0.055730
			CHANNELS 3 Zrotation Xrotation Yrotation
			JOINT Head
			{
				OFFSET	0.000000	4.185120	1.488260
				CHANNELS 3 Zrotation Xrotation Yrotation
				End Site
				{
					OFFSET	0.000000	7.773420	-0.106016
				}
			}
		}
	}
}
MOTION
Frames:    12
Frame Time: 0.016667
-4.259325	38.240540	12.575830	-0.486765	-2.706890	-1.262625	5.930947	-0.257517	8.259307	0.627994	4.368071	9.735127	-5.198188	-2.474233	-1.514238	-4.903830	2.381908	-7.267051	-1.319538	2.474543	-2.503336	8.627335	-1.686991	1.067318	-1.405263	4.299074	3.042052	1.723143	-20.591007	-4.759061	19.700344	-23.114614	10.669206	18.742867	-118.122124	62.747269	14.764727	-2.865184	30.429426	-14.177126	-17.094948	0.444174	-26.698444	-24.862637	-13.294823	64.732971	-110.071625	41.977005	-33.664310	22.042662	-24.120272	-1.139624	8.915722	-17.306330	6.167895	8.978526	16.255114	
-4.262503	38.230644	12.614427	-0.388519	-2.424783	-1.189082	5.841770	-0.540219	8.259505	0.621191	4.413905	9.683126	-5.204155	-2.509555	-1.507239	-4.961611	2.127847	-7.475749	-1.339577	2.468249	-2.445935	8.617835	-1.702056	1.125889	-1.679253	4.050967	3.032724	1.621714	-20.101498	-4.709004	19.648243	-23.093800	11.013192	14.818404	-123.790627	55.415180	13.876585	-1.623248	29.539213	-13.671052	-16.597187	0.405333	-26.869801	-24.475277	-13.890087	54.643661	-112.859184	33.431679	-29.146343	18.978840	-25.710043	-1.004918	10.009412	-17.909864	5.877870	10.260553	17.350163	
-4.264781	38.227650	12.622947	-0.356608	-2.349185	-1.159385	5.812398	-0.613864	8.255862	0.620606	4.408864	9.666305	-5.203262	-2.492488	-1.511126	-4.982034	2.059196	-7.537661	-1.343852	2.470480	-2.421687	8.613528	-1.710611	1.129337	-1.898070	4.018090	3.113626	1.813510	-19.984985	-4.794165	19.626102	-22.606983	11.330126	13.577275	-126.290230	53.082417	11.106184	-4.384323	26.172993	-13.307330	-16.463900	0.392456	-26.895744	-24.072165	-15.104243	46.340351	-115.937614	27.046762	-24.806900	15.467582	-27.001245	-0.687579	11.115867	-18.392534	5.805684	9.925698	17.954502	
-4.272580	38.227161	12.611086	-0.331836	-2.292109	-1.138211	5.791303	-0.661414	8.279502	0.626684	4.326849	9.644607	-5.192978	-2.404635	-1.529995	-4.983746	2.050504	-7.469385	-1.356961	2.418886	-2.517211	8.615818	-1.705931	1.128908	-2.089725	4.130681	3.278659	2.135692	-19.578491	-4.791190	19.725016	-22.694401	11.973132	10.827629	-132.600891	46.532635	10.899509	-3.386528	24.750851	-12.636748	-15.968759	0.664744	-27.448578	-23.981936	-18.188923	38.888500	-118.777580	22.097857	-20.536224	10.585194	-27.841824	-0.097613	12.051706	-18.374805	5.243203	10.485308	18.316263	
-4.275860	38.226517	12.604471	-0.317795	-2.289783	-1.112542	5.777034	-0.666530	8.254782	0.630353	4.292411	9.652269	-5.184336	-2.354903	-1.543427	-4.951235	2.090117	-7.255804	-1.387581	2.377884	-2.758979	8.616446	-1.704661	1.128797	-2.180201	4.271162	3.362892	2.246162	-19.513845	-4.801543	19.840679	-22.811014	12.455360	10.357880	-134.706970	44.699997	10.239194	-3.953797	23.299004	-12.453512	-15.825098	0.707831	-27.244442	-23.810965	-20.558212	34.314610	-122.020729	20.877104	-17.690189	9.891008	-29.262856	0.218285	12.504856	-18.455400	5.097614	10.270003	18.510714	
-4.286304	38.225548	12.584022	-0.258858	-2.374435	-0.951887	5.712814	-0.581343	8.083532	0.642502	4.151655	9.685107	-5.170944	-2.215520	-1.568636	-4.992205	2.192365	-7.179996	-1.391188	2.376422	-2.986123	8.616446	-1.704661	1.128797	-2.312637	4.804950	3.543981	2.326865	-19.397844	-4.779367	19.954124	-23.243702	14.039308	9.729110	-140.587143	39.274265	7.378453	-6.423822	17.779221	-12.216787	-15.487719	0.826024	-27.601149	-23.757736	-22.567785	32.617161	-125.581169	22.293751	-14.188231	-5.231745	-28.493700	0.519401	12.374024	-18.661936	5.016976	10.249423	18.922634	
-4.289685	38.226421	12.583427	-0.250163	-2.361154	-0.868685	5.707792	-0.581726	8.065264	0.640283	4.087683	9.669217	-5.167384	-2.156122	-1.612572	-4.979795	2.164733	-7.168283	-1.407431	2.397853	-3.081855	8.616446	-1.704661	1.128797	-2.235394	5.204775	3.633095	2.170688	-19.652048	-4.817038	19.948078	-23.374594	14.587380	9.692718	-142.292999	37.540699	6.016381	-7.666234	15.497812	-12.323151	-15.654625	0.692259	-27.734167	-23.596405	-23.479288	32.054379	-127.150841	22.840235	-13.296278	-9.873496	-28.966103	0.424725	11.977080	-18.479208	5.184389	10.055883	18.665754	
-4.303305	38.226566	12.584481	-0.240272	-1.901568	-0.591472	5.715484	-1.069625	8.272574	0.655140	3.969519	9.380424	-5.153477	-2.013663	-1.751146	-4.962977	1.737077	-7.515201	-1.449242	2.333566	-3.051932	8.644532	-1.647439	1.122085	-2.030303	5.248991	3.451125	1.912712	-19.682953	-4.543585	19.904934	-23.915602	16.247187	9.849747	-145.986618	33.429047	0.471436	-11.850821	8.182992	-12.515883	-15.683802	0.665158	-27.898859	-23.264502	-26.253304	30.743952	-130.704025	22.956482	-10.677711	-19.878744	-32.732719	0.201034	11.260103	-18.174387	5.526643	9.180628	18.260960	
-4.307457	38.225708	12.588346	-0.232669	-1.646839	-0.509877	5.713553	-1.328976	8.396769	0.659760	3.922330	9.276808	-5.147927	-1.951322	-1.823836	-4.915605	1.523039	-7.763052	-1.529767	2.236891	-2.937575	8.672308	-1.588301	1.142721	-1.945391	5.192293	3.399772	1.770197	-19.775476	-4.450718	19.879269	-24.127094	16.691498	9.990104	-146.704895	32.633217	-1.467024	-12.384255	6.379394	-12.597368	-15.799719	0.633870	-27.864059	-23.238398	-26.938625	30.680223	-131.475449	23.005373	-9.342628	-20.952862	-34.600777	0.057903	10.872294	-17.991640	5.640352	8.863327	17.959080	
-4.317079	38.227062	12.640481	-0.195299	-0.956837	-0.239424	5.674351	-1.895277	8.663103	0.661220	3.652642	9.013640	-5.129229	-1.805354	-2.015054	-4.923413	0.985359	-8.210703	-1.618631	1.951995	-2.892113	8.750192	-1.421366	1.191542	-1.843694	4.770329	3.284316	1.458442	-19.889822	-4.327490	20.161125	-24.647049	17.636787	10.219516	-147.044876	31.696108	-5.158557	-10.309757	5.715628	-12.859426	-15.962945	0.580445	-27.511150	-22.903229	-28.969906	31.369457	-132.050217	23.804255	-7.844613	-21.581982	-35.754116	-0.396838	9.674583	-17.473742	5.998104	8.113726	16.945724	
-4.320210	38.228287	12.650808	-0.195404	-0.785697	-0.169408	5.674626	-2.032904	8.731730	0.660466	3.570035	8.946888	-5.124073	-1.753100	-2.065690	-4.894071	0.898039	-8.328755	-1.714970	1.727062	-2.865131	8.821954	-1.274618	1.175355	-1.842188	4.642074	3.262472	1.430640	-19.978855	-4.254958	20.381168	-24.707817	17.635878	10.147423	-146.322174	31.451153	-5.435102	-9.745163	6.581415	-12.914130	-16.002014	0.547948	-27.414484	-22.782885	-29.562086	32.020885	-131.663635	24.618305	-8.407286	-20.858919	-35.535332	-0.530952	9.254237	-17.307302	6.125954	7.889701	16.617260	
-4.328641	38.234447	12.663206	-0.214275	-0.693595	-0.000438	5.691831	-2.049838	8.700736	0.658891	3.379314	8.848925	-5.117709	-1.650448	-2.086696	-4.828105	1.005314	-8.377927	-1.750323	1.501572	-2.998575	8.842115	-1.233625	1.169361	-1.948408	4.476155	3.186280	1.608703	-19.973131	-4.383142	21.424261	-24.613401	17.341522	9.593022	-142.305298	31.804800	-3.373478	-9.433514	8.445196	-12.814175	-15.938972	0.453454	-27.474945	-22.500916	-30.040453	35.698166	-129.270081	28.373289	-11.426835	-16.680119	-35.847794	-0.767420	8.163934	-16.821611	6.504726	7.263287	15.766484	
